
<svg width="31.88" height="32" version="1.1" viewBox="0 0 752 752" xmlns="http://www.w3.org/2000/svg">
 <defs>
  <clipPath id="a">
   <path d="m139.21 427h473.58v68h-473.58z"/>
  </clipPath>
 </defs>
 <path d="m145.43 374.82-1.0625 40.711c5.7188 2.6523 11.707 4.6797 17.863 6.0508 71.566 9.4062 93.855 7.3359 93.855 7.3359l17.863-35.781s-96.316-36.457-105.89-36.566c-3.3047-0.003907-22.625 18.25-22.625 18.25z" fill="#3b6af9"/>
 <path d="m171.8 353.82c0-0.50391 2.2383 0 7.8945-0.78516l0.003907 0.003907c3.3633-0.58594 6.7812-0.79297 10.191-0.61719 1.1367-0.10547 2.2773-0.10547 3.4141 0 22.398 6.3828 44.801 11.648 66.863 18.48 20.094 5.7773 40.742 9.418 61.598 10.863 5.9492 0.82812 11.984-0.72266 16.801-4.3125 3.2305-3.1328 5.3398-7.25 5.9922-11.703 2.3516-12.434-5.6016-20.105-3.0234-22.398 3.3047-2.9102 21.336 7.6172 30.742 24.75 2.9688 5.6016 7.6719 11.199 6.7773 18.984-1.2891 11.199-5.207 13.273-12.488 17.414-9.2969 5.207-21.617 4.3125-29.625 3.8086-16.371-0.91797-32.484-4.4922-47.711-10.582-55.605-25.367-118.38-40.938-117.43-43.906z" fill="#3b6af9"/>
 <path d="m196.83 349.52 5.6016-5.6016c12.258 7.6289 27.191 9.668 41.047 5.6016 10.641-2.6328 21.727-7 42.895-27.16 5.457-5.2031 10.371-10.945 14.672-17.137 9.9766 4.5898 19.375 10.34 28 17.137 0 0-28 50.398-37.688 50.398-6.832 0-11.199-1.2891-50.957-10.473-14.801-3.2539-29.355-7.5195-43.57-12.766z" fill="#3b6af9"/>
 <path d="m420.83 372.75s-0.44922 17.918-33.039 36.23c-8.625 4.8711-18.984 27.215-17.918 30.184 2.6875 7.7852 152.6 8.7344 197.68 2.4648 22.902-3.1914 34.383-8.3984 36.68-13.887 2.2969-5.4883-11.199-28.504-11.199-28.504-3.6953-0.78516-9.8555 7.168-13.047 7.7266-43.176 7.7266-82.711 15.512-134.4 1.9023-6.832-1.793 1.625-27.16 1.625-27.16z" fill="#3b6af9"/>
 <path d="m176.34 294.47c-5.6016-5.2656-16.238-4.1445-16.801-2.4062 0 0.89453 2.3516 1.5117 6.5508 5.2656v-0.003906c4.0195 3.7773 7.207 8.3555 9.3516 13.438 1.6445 4.4102 3.0117 8.918 4.0898 13.496 2.0156 4.7617 5.6016 6.3281 21.617 15.457 13.379 7.6172 13.211 7.6172 13.492 7.6172 15.344 5.9922 33.262-2.4648 40.598-6.1055 11.117-4.6836 20.922-12.004 28.562-21.336 4.8633-6.8242 10.504-13.062 16.797-18.59 1.793-1.2305-4.0312-3.4727-6.9453-3.2461-6.1055 0.44922-8.1211 7.6172-14.672 15.902-6.5469 8.2852-14.332 13.047-26.148 20.047-9.6875 5.6016-14.617 8.3438-22.008 8.9609v-0.003906c-6.6914 0.39844-13.391-0.71094-19.598-3.2461-7.0625-2.1758-13.496-6.0156-18.762-11.199-3.5508-3.6953-6.4297-7.9766-8.5117-12.656-5.7656-11.48-2.5195-16.746-7.6133-21.391z" fill="#3b6af9"/>
 <path d="m143.3 418.39-1.2305 6.1055s22.062 8.0078 33.934 7.6719c35.223-1.1758 53.086 2.6875 83.438 5.6016 30.352 2.9102 35.168 3.8633 104.38 11.199h-0.003907c38.812 4.668 77.895 6.707 116.98 6.1016 28.617 0.14844 57.211-1.7227 85.562-5.5977 14.648-1.5859 29.082-4.7188 43.066-9.3516 1.9609-1.1211-1.9023-9.0156-1.9023-9.0156s-19.934 11.199-64.789 15.121c-9.1836 0.72656-17.527 2.0156-50.398 2.4062-72.184 0.95313-107.46-2.8008-129.25-5.6016-50.906-7-60.652-7.7266-104.66-10.809-36.566-2.5195-73.582-4.8164-91.613-6.5508h-0.003906c-8.1758-1.1602-16.113-3.6172-23.516-7.2812z" fill="#3b6af9"/>
 <g clip-path="url(#a)">
  <path d="m609.77 443.37c-7.7852 1.6797-63.672 14.617-104.94 15.961-45.152 2.4336-90.43 1.0664-135.35-4.0898-12.207-1.5117-19.543-2.7422-57.453-7.7266-28-3.6406-41.941-5.6016-56.672-6.9453-35.895-3.5273-48.887-5.6016-61.598-5.207-33.992 1.5117-52.137-7.8398-52.137-7.8398-1.332 8.543-2.0625 17.172-2.1836 25.816 3.8555 2.1641 7.9531 3.8555 12.211 5.0391 19.094 5.6016 30.52 2.4062 36.23 3.9766 0 0 0 5.0391-2.0156 4.9844-8.1914 0.16797-16.379-0.375-24.473-1.625-12.32-1.625-15.289-1.2891-21.785-4.8164 0.16797 4.4258 0.98047 8.8008 2.4102 12.992 2.4062 6.3281 19.656 13.383 23.238 14 69.832 12.152 352.34 3.6406 380.79 1.2305 18.645-0.12109 36.922-5.1836 52.973-14.672 5.0039-2.8945 8.9336-7.3359 11.199-12.652 2.1289-5.7695 4.8164-19.266-0.44531-18.426zm-410.7 27.16-0.39062-2.6875h-5.0391l-1.793 2.6875h-2.8594l8.3438-12.039h2.5195l1.9062 12.039zm4.2578 0 3.1914-11.926h2.6328l-3.1953 11.926zm14-4.0898 1.9023 4.0898h-2.9688l-1.8477-3.8086h-1.9609l-1.0078 3.8086h-2.6328l3.1914-11.926h4.3125v-0.003906c1.375-0.13281 2.75 0.28906 3.8086 1.1797 0.58984 0.66016 0.91016 1.5195 0.89453 2.4062-0.058594 2.0977-1.6172 3.8438-3.6953 4.1445z" fill="#3b6af9"/>
 </g>
 <path d="m264.82 470.53h-39.984c-1.0625 0-1.0625-3.9766 0-3.9766h42.055c1.1211-0.22266-0.94922 3.9766-2.0703 3.9766z" fill="#3b6af9"/>
 <path d="m195.15 465.43h3.1914l-0.55859-3.918z" fill="#3b6af9"/>
 <path d="m216.32 460.84h-2.2383l-0.89453 3.4141h2.3516c1.625 0 2.8555-0.67188 2.8555-1.9609v0.003906c0.007813-0.34766-0.10938-0.6875-0.33594-0.95312-0.49219-0.38672-1.1172-0.56641-1.7383-0.50391z" fill="#3b6af9"/>
 <path d="m335.43 292.73c0-3.8633-9.0703-9.0703-17.695-7.8945-7.4492 0.89453-15.121 6.8867-14.504 12.094 0 2.2383 1.8477 3.3594 10.359 9.2383 15.23 10.695 14.84 10.414 16.016 11.199 7 4.4258 12.824 7.8398 18.199 10.863 13.215 7.5039 14.336 7.6719 26.879 14.672 5.6016 3.0781 14.672 8.2305 26.094 15.23 13.777 8.457 12.602 8.457 17.918 11.199 12.207 6.1602 13.047 3.4727 30.184 10.359l0.003906 0.007813c8.207 3.3242 16.648 6.0352 25.258 8.1172 3.8711 1.0195 7.9805 0.55859 11.535-1.2891 2.2109-1.3398 3.9961-3.2812 5.1523-5.5977 0.86719-1.4922 1.2578-3.2109 1.1172-4.9297-1.6172-4.5898-6.4883-7.1719-11.199-5.9336-2.9102 1.0078-2.3516 3.75-7.0547 7.5586-1.9375 2.0312-4.543 3.3047-7.3359 3.5859-3.2305 0.14844-6.2695-1.543-7.8398-4.3711-1.6797-4.5938 5.6016-7.9531 5.6016-15.512 0-5.1523-3.8086-10.023-5.9375-9.7422-2.1289 0.28125-1.3984 2.1289-3.8086 6.4961-2.4062 4.3672-4.4258 7.9531-7.8945 8.6797-2.5195 0.55859-6.1055 0-7.0547-2.1289-1.5664-3.4727 5.6016-7.6719 4.0898-12.266l-0.003907 0.003906c-0.80078-2.3828-3.0898-3.9414-5.6016-3.8086-2.5742 0.33594-3.0781 3.4727-7.8945 9.8008-4.8164 6.3281-6.1602 5.9922-6.7773 5.9922-2.9336-0.21094-5.375-2.332-5.9883-5.2109-0.72656-7.5586 3.0781-6.4961 1.625-11.199-0.61719-2.1289-4.3672-4.8164-5.9375-4.1445-2.4648 1.0625-1.2891 5.8789-3.582 6.7773h-0.003906c-3.2031 0.34766-6.3359-1.1211-8.1172-3.8086-1.5117-3.5273 1.793-6.1055 0-9.2383-1.332-2.5586-4.2969-3.8047-7.0586-2.9688-1.625 1.0078-0.39062 3.3594-2.4062 6.2734-1.2852 1.8672-3.3398 3.0586-5.6016 3.2461-2.4961-0.16797-4.6758-1.7578-5.5977-4.0859-1.3984-3.3594 1.3438-5.3203 0-9.8008-0.44922-1.9609-1.793-4.7617-3.5273-4.8711-1.7344-0.11328-2.4648 3.6953-5.6016 4.3672-2.5547 0.28906-5.0273-1.0234-6.2148-3.3047-1.625-3.582 2.9102-6.7188 1.3438-10.863-0.78516-2.0703-3.0781-4.0898-4.8711-3.8086-3.1367 0.50391-2.2969 7.3906-6.832 9.8008-2.9453 1.6484-6.6328 1.0938-8.9609-1.3438-1.9023-3.75 7.168-10.078 4.9297-14.391l-0.003906-0.003906c-0.70703-1.1953-1.9258-2-3.3008-2.1836-3.6953-0.55859-5.0391 4.5938-10.582 6.4961h-0.003906c-3.7734 1.3086-7.9492 0.70312-11.199-1.6211-1.0078-0.78516-3.2461-2.5742-3.2461-4.8711 1.0078-5.2656 12.766-6.668 12.934-10.867z" fill="#3b6af9"/>
 <path d="m292.48 292.84c-1.3438 0-2.4062-6.6094-0.39062-12.656h-0.003906c2.0508-5.1328 5.6016-9.5234 10.191-12.598 4.3398-3.6172 9.3164-6.3906 14.672-8.1758 0.89453-0.28125 7.8398-2.5742 8.5117-1.2305 0.67187 1.3438-2.2969 3.3047-5.6016 6.1602-5.6016 4.4258-7.5586 5.1523-12.266 8.9609l0.003906-0.003907c-3.0234 2.2188-5.7539 4.8164-8.1172 7.7266-5.2109 6.5508-5.7695 12.039-7 11.816z" fill="#3b6af9"/>
 <path d="m329.55 258.63-8.1211 8.5664s11.199 22.398 20.777 21.168c3.4258-0.37109 6.6055-1.9609 8.957-4.4805 0.8125-1.1523 1.4883-2.3906 2.0195-3.6953z" fill="#3b6af9"/>
 <path d="m318.57 267.98s-9.2383 7.2227-12.266 9.8008h0.003906c-3.6133 2.9062-6.7656 6.3438-9.3516 10.191-0.72656 1.457-3.2461 6.8867-3.2461 6.8867l6.9453 1.2305h-0.003906c1.3281-3.0117 2.957-5.8828 4.8711-8.5664 2.8242-2.7578 6.3477-4.6953 10.191-5.6016 3.2461 0 11.199 3.582 12.602 2.0703 2.4609-2.1797-9.7461-16.012-9.7461-16.012z" fill="#3b6af9"/>
 <path d="m354.97 279.8c-1.2891 3.0234 6.6641 3.4141 5.6016 7.2227-2.5664 9.2656-5.8242 18.324-9.7461 27.102-0.61719 1.5664-3.9766 6.0469 0 6.7188 5.0977 0.89453 6.6094-5.6016 7.3359-6.4414 5.9922-8.7344 7.8945-10.305 8.9023-16.801l0.003906 0.003906c0.92578-2.9688 0.51563-6.1992-1.1211-8.8477-1.7383-3.7031-4-7.1328-6.7188-10.191-0.66406-0.62109-1.6055-0.84766-2.4805-0.59375-0.87109 0.25391-1.5469 0.94531-1.7773 1.8281z" fill="#3b6af9"/>
 <path d="m357.89 284.67c-1.2305-0.95312-3.6406 0-8.3438 2.0703-5.7461 2.3906-11.105 5.6172-15.906 9.5781-4.8711 3.9766-7.3906 6.1055-6.9453 8.3438 0.44922 2.2383 4.0312 3.8086 6.7188 4.0898s4.0898-0.61719 12.656-5.6016c7.0547-3.918 7.6172-5.9922 8.3438-6.8867 4.8203-5.6602 5.7734-9.7461 3.4766-11.594z" fill="#3b6af9"/>
 <path d="m372.56 296.93c1.6797-0.67188 6.1602 4.1992 7.8945 9.7422v0.003906c1.4922 5.0977 0.82031 10.582-1.8477 15.176-1.8477 2.9688-5.6016 7-8.0625 6.0469-2.4648-0.95313-0.72656-6.8867-0.67188-7.9531-0.625-5.0312-0.86719-10.105-0.73047-15.176 0.95312-5.8242 2.1836-7.2227 3.418-7.8398z" fill="#3b6af9"/>
 <path d="m382.8 306c-1.1758 1.2305 0.83984 4.7617 1.1211 13.047 0.28125 10.137-2.5742 15.344 0 19.766 0 0.50391 1.3438 2.2383 2.8008 2.4062 2.7422 0.33594 4.8164-4.6484 5.0977-5.2656l-0.003907 0.003907c1.3867-4.6289 1.6758-9.5195 0.83984-14.277-0.10938-2.4922-0.54297-4.957-1.2852-7.3359-2.2422-5.9375-7.1133-9.9688-8.5703-8.3438z" fill="#3b6af9"/>
 <path d="m423.07 361.16c-2.4648-0.95312-3.2461-6.5508-0.39062-18.648v0.003906c0.011719-3.6211 0.29297-7.2305 0.83984-10.809 0-0.83984 0.61719-2.0703 1.5664-2.4062 1.8477-0.61719 4.2578 2.4062 4.7031 2.9688 1.5117 1.8477 1.0078 2.4648 2.2383 7 1.2305 4.5352 0 8.2891-3.1914 16.801-1.8438 4.9805-2.4023 6.3242-5.7656 5.0898z" fill="#3b6af9"/>
 <path d="m444.85 343.97c-1.0078 1.457 0.33594 8.5117 0 11.535-0.33594 3.0234-4.0898 4.7617-3.4727 7.5039 0.23047 1.4688 1.543 2.5156 3.0234 2.4102 4.6484 0.33594 5.1523-2.0156 6.9453-5.6016 2.6719-3.9922 3.9492-8.7539 3.6406-13.551-0.44922-2.6328-2.7422-3.5273-6.2148-3.75-1.457-0.097656-2.8828 0.42969-3.9219 1.4531z" fill="#3b6af9"/>
 <path d="m468.48 361.22s-8.457 10.863-7.8984 15.23c0 1.1211 1.2891 2.2969 3.8086 3.6953 2.5195 1.3984 6.6641-2.8008 8.3438-3.8086 2.6719-2.0156 5.0117-4.4336 6.9453-7.168 2.2383-2.6875-6.1602-8.957-11.199-7.9492z" fill="#3b6af9"/>
 <path d="m473.75 360.49c-3.4727-1.0078-5.9922 0.95312-6.7773 0s0-2.8008 1.3438-3.8086c3.6953-2.8008 13.719 1.457 14.672 6.7773 0 1.3984 0 3.0781-0.83984 3.2461-0.83984 0.16797-1.9609-2.5195-5.6016-4.8711h0.003906c-0.84375-0.61328-1.793-1.0664-2.8008-1.3438z" fill="#3b6af9"/>
 <path d="m404.03 315.02c-3.6406 3.4727 1.9609 2.1836 1.457 10.414-0.61719 10.137-3.75 15.062-1.8477 19.656 0.61719 1.0625 1.457 1.9805 2.4648 2.6875 3.6953 2.8008 3.4141-0.44922 5.0391-4.7617v0.003906c1.6367-4.5586 2.4141-9.3828 2.2969-14.227 0.13672-2.4766-0.054688-4.9609-0.5625-7.3906-1.3984-6.1016-7.2227-7.6719-8.8477-6.3828z" fill="#3b6af9"/>
 <path d="m394.17 315.69c1.457-0.83984 4.8711 1.3984 6.4961 2.8555 0.50391 0.39062 2.5195 1.1211 2.4648 2.8555-0.28125 6.7188 1.6797 6.7188-0.83984 12.602-0.83984 2.0156-4.8164-1.5664-6.2734-3.0234-1.6211-10.922-3.1914-14.562-1.8477-15.289z" fill="#3b6af9"/>
 <path d="m416.63 323.87c1.457-0.78516 5.6016 1.7344 5.6016 3.4727h-0.003907c0.03125 5.3672-0.66406 10.719-2.0703 15.902-0.67188 2.0703-4.0312-0.55859-5.6016-1.9609 0.33594-10.75 0.67187-16.688 2.0742-17.414z" fill="#3b6af9"/>
 <path d="m434.83 333.16c1.1758-1.1758 6.4961 0 6.8867 1.457v-0.003906c1.0664 3.3672 1.2969 6.9414 0.67188 10.418 0 2.1836-5.0391 3.0234-6.832 2.0156-1.6797-9.7461-1.7891-12.824-0.72656-13.887z" fill="#3b6af9"/>
 <path d="m416.91 372.08c-1.1758-5.6016-82.094-47.656-82.879-46.48-4.3125 6.4961-28.504 44.238-34.941 50.398-0.89453 0.89453 28.449 3.4727 33.879 0.44922h-0.003906c4.5469-2.5234 7.8047-6.8594 8.9609-11.926 0.52344-5.3398-0.125-10.73-1.9023-15.793-1.2305-4.8711-2.1836-7-1.0625-8.1211 1.1211-1.1211 6.6094 0.44922 10.305 2.1289h-0.003906c4.6562 2.1641 8.957 5.0156 12.77 8.457 3.4883 3.1484 6.5898 6.6992 9.2383 10.582 3.3906 4.8945 6.1367 10.199 8.1758 15.793 0.68359 1.8203 1.2266 3.6914 1.625 5.5977 0.75391 4.207 0.36719 8.5391-1.1211 12.547-1.9141 4.3203-5.1484 7.9297-9.2383 10.301-5.7227 3.5703-12.254 5.6289-18.984 5.9922-8.2852 0.60156-16.617 0.054688-24.754-1.625-9.5391-1.0117-18.934-3.1133-27.996-6.2695-13.496-5.0391-20.383-8.1211-20.383-8.1211l-16.016 33.598s15.062 2.2383 42.109 4.6484c35.559 3.1367 55.102 6.4961 59.246 4.5352 4.1445-1.9609 3.1914-17.641 20.383-31.977 7.3359-6.1602 14.223-8.625 24.191-19.598 8.9062-9.7422 8.793-13.438 8.4023-15.117zm-132.66 41.605c-1.082 0-1.957-0.875-1.957-1.957 0-1.0859 0.875-1.9609 1.957-1.9609 0.52734-0.015625 1.0352 0.18359 1.4062 0.55469 0.37109 0.37109 0.57031 0.87891 0.55469 1.4062 0 0.51953-0.20703 1.0156-0.57422 1.3828-0.36719 0.36719-0.86719 0.57422-1.3867 0.57422zm71.398 9.6875c-1.082 0-1.957-0.875-1.957-1.957 0-1.0859 0.875-1.9609 1.957-1.9609s1.9609 0.875 1.9609 1.9609c0 0.51953-0.20703 1.0156-0.57422 1.3828-0.36719 0.36719-0.86719 0.57422-1.3867 0.57422z" fill="#3b6af9"/>
 <path d="m587.59 397.73c0-2.7422-11.199-3.6406-21.223-5.3203-40.488-6.7773-61.934-16.352-70.109-16.297-4.8711 0 3.2461 11.199-11.199 14.223-15.68 3.4727-30.184-8.5117-33.992-7.0547-3.8086 1.457-5.6016 21.84-1.6797 22.398h-0.003906c41.547 7.5117 84.156 6.8242 125.44-2.0156 11.648-3.1367 12.824-5.1523 12.77-5.9336zm-120.9-3.0781v-0.003906c-1.082 0-1.9609-0.87891-1.9609-1.9609 0.16406-0.96875 1.0039-1.6797 1.9883-1.6797s1.8242 0.71094 1.9883 1.6797c-0.085937 1.0469-0.96484 1.8516-2.0156 1.8477zm8.9023 8.2891v-0.003906c-0.96875-0.16406-1.6797-1.0039-1.6797-1.9883s0.71094-1.8242 1.6797-1.9883c0.58594-0.097657 1.1836 0.066406 1.6367 0.44922 0.45312 0.38281 0.71484 0.94531 0.71484 1.5391s-0.26172 1.1562-0.71484 1.5391c-0.45312 0.38281-1.0508 0.54688-1.6367 0.44922zm11.59-6.0469 0.003906-0.003906c-1.082 0-1.9609-0.87891-1.9609-1.9609 0-1.082 0.87891-1.9609 1.9609-1.9609s1.9609 0.87891 1.9609 1.9609c0 1.082-0.87891 1.9609-1.9609 1.9609zm10.414 4.0898 0.003906-0.007813c-0.8125 0-1.5508-0.49219-1.8633-1.2461-0.30859-0.75-0.13672-1.6172 0.4375-2.1953 0.57812-0.57812 1.4453-0.75 2.1992-0.4375s1.2422 1.0469 1.2422 1.8633c-0.058594 1.0703-0.94531 1.9062-2.0156 1.9023zm0-11.871 0.003906-0.007812c-1.082 0-1.957-0.87891-1.957-1.9609 0.16016-0.96875 1-1.6797 1.9844-1.6797s1.8242 0.71094 1.9883 1.6797c-0.058594 1.0625-0.95313 1.8789-2.0156 1.8477zm3.9766-6.5508 0.003906-0.007812c-0.52344 0.015624-1.0312-0.1875-1.4023-0.55859-0.37109-0.37109-0.57422-0.87891-0.55859-1.4023 0-1.082 0.87891-1.9609 1.9609-1.9609s1.9609 0.87891 1.9609 1.9609c-0.058593 1.0391-0.92187 1.8477-1.9609 1.8477zm4.9297 10.137 0.003906-0.011719c0.16016-0.96875 1.0039-1.6797 1.9883-1.6797 0.98047 0 1.8242 0.71094 1.9844 1.6797-0.16016 0.97266-1.0039 1.6836-1.9844 1.6836-0.98438 0-1.8281-0.71094-1.9883-1.6836zm3.4727 13.441v-0.011719c-1.0898 0-1.9844-0.86719-2.0156-1.9609 0.16406-0.96875 1.0039-1.6797 1.9883-1.6797s1.8242 0.71094 1.9883 1.6797c-0.058594 1.0391-0.91797 1.8516-1.9609 1.8477zm5.6016-18.48v-0.011718c-0.53125 0.015624-1.043-0.18359-1.4219-0.55469-0.37891-0.36719-0.59375-0.875-0.59375-1.4062 0.16406-0.96875 1.0039-1.6797 1.9883-1.6797s1.8242 0.71094 1.9883 1.6797c-0.027343 0.55469-0.28516 1.0703-0.71094 1.4219s-0.98438 0.50781-1.5312 0.42969zm5.6016 10.473v-0.011718c-0.52734 0.015625-1.0352-0.1875-1.4062-0.55859-0.37109-0.37109-0.57031-0.87891-0.55469-1.4023 0-1.082 0.875-1.9609 1.9609-1.9609 1.082 0 1.957 0.87891 1.957 1.9609-0.027344 0.53125-0.26953 1.0273-0.67188 1.375-0.39844 0.34766-0.92578 0.51953-1.4531 0.47266zm5.6016-7.7266-0.003906-0.011719c-0.58594 0.097657-1.1836-0.066406-1.6367-0.44922-0.45312-0.38281-0.71484-0.94531-0.71484-1.5391s0.26172-1.1562 0.71484-1.5391c0.45312-0.38281 1.0508-0.54688 1.6367-0.44922 0.97266 0.16406 1.6836 1.0039 1.6836 1.9883s-0.71094 1.8242-1.6836 1.9883zm7.8398 12.543-0.003906-0.011719c-0.96875-0.16406-1.6797-1.0039-1.6797-1.9883s0.71094-1.8242 1.6797-1.9883c0.58594-0.097657 1.1836 0.066406 1.6367 0.44922 0.45312 0.38281 0.71484 0.94531 0.71484 1.5391s-0.26172 1.1562-0.71484 1.5391c-0.45312 0.38281-1.0508 0.54688-1.6367 0.44922zm5.6016-8.2891-0.003906-0.011718c-1.0938 0-1.9883-0.86719-2.0156-1.9609 0.16016-0.96875 1.0039-1.6797 1.9883-1.6797 0.98047 0 1.8242 0.71094 1.9844 1.6797-0.027343 0.52344-0.26172 1.0078-0.65234 1.3555-0.38672 0.34766-0.89844 0.52344-1.418 0.49219zm11.59 2.7422-0.003906-0.007813c-1.082 0-1.9609-0.87891-1.9609-1.9609 0-1.082 0.87891-1.9609 1.9609-1.9609 1.082 0 1.9609 0.87891 1.9609 1.9609-0.027343 0.51953-0.26562 1.0078-0.65234 1.3516-0.39063 0.34766-0.89844 0.52734-1.418 0.49609z" fill="#3b6af9"/>
 <path d="m180.04 328.12c-6.6641-8.6797-3.1367-15.398-11.703-24.809-2.3516-2.6328-6.0469-6.6641-9.4648-5.6016-1.1758 0-4.7617 1.5664-8.0625 20.441-1.6797 9.8555-1.7344 12.77-2.9102 24.137-1.9609 18.535-4.7031 26.598-2.1836 28 1.3984 0.61719 2.8555-1.5664 10.918-8.0078h-0.003906c4.1406-3.832 8.8203-7.0391 13.891-9.5195 7.168-2.4648 9.5195 0.55859 17.527-2.1836 2.6328-0.89453 9.9688-3.4141 10.246-7.2812 0.054688-5.375-11.031-5.375-18.254-15.176zm-30.406-2.3516h-0.003906c3.7148-1.7383 7.5508-3.1992 11.48-4.3672 3.1367-0.72656-12.152 10.078-12.152 10.078" fill="#3b6af9"/>
</svg>
